# xmcd
#
# Track frame offsets:
#	150
#	14840
#	28060
#	40542
#	54297
#	67375
#	81090
#	93735
#	107250
#	121995
#	133842
#	148260
#	159745
#	171647
#	185810
#	199575
#	213440
#	227335
#	241705
#	254370
#	267402
#	280785
#	294715
#	308500
#	321795
#
# Disc length: 4440 seconds
#
# Revision: 0
# Processed by: cddbd v1.4PL0 Copyright (c) Steve Scherf et al.
# Submitted via: dBpowerAMP V4.0
#
DISCID=77115619
DTITLE=Jazz Gillum 1946--1949 - Complete Recorded Works Vol. 4
DYEAR=1900
DGENRE=Blues
TTITLE0=Fast Woman
TTITLE1=All In All Blues
TTITLE2=Keep On Sailing
TTITLE3=Look On Yonder Wall
TTITLE4=Long Razor Blues
TTITLE5=I'm Gonna Train My Baby
TTITLE6=Roll Dem Bones
TTITLE7=Can't Trust Myself
TTITLE8=I'm Not The Lad
TTITLE9=The Blues What Am
TTITLE10=Gonna Take My Rap
TTITLE11=You Got To Run Me Down
TTITLE12=Chauffer Blues
TTITLE13=Hand Reader Blues
TTITLE14=Country Woman Blues
TTITLE15=You Should Give Some Away
TTITLE16=Take A Little Walk With Me
TTITLE17=What A Gal
TTITLE18=Signifying Woman
TTITLE19=The Devil Blues
TTITLE20=Jazz Gillum's Blues
TTITLE21=Take One More Chance With Me
TTITLE22=Gonna Be Some Shooting
TTITLE23=Look What You Are Today
TTITLE24=A Lie Is Dangerous
EXTD=william hale
EXTT0=
EXTT1=
EXTT2=
EXTT3=
EXTT4=
EXTT5=
EXTT6=
EXTT7=
EXTT8=
EXTT9=
EXTT10=
EXTT11=
EXTT12=
EXTT13=
EXTT14=
EXTT15=
EXTT16=
EXTT17=
EXTT18=
EXTT19=
EXTT20=
EXTT21=
EXTT22=
EXTT23=
EXTT24=
PLAYORDER=
